# File created by Blade
# Date/Time:  Thu Jan 15 19:03:44 2015
#---------------------------------------------------------
:version 1.10
:name HOM
:units
  mass 1.0
  length 1.000000
  angle deg
:documentation
     Acclaim Skeleton File
:root
   axis xyz
   order TX TY TZ RX RY RZ
   position 0.000000 0.000000 0.000000
   orientation 0 0 0
:bonedata
   begin
      id 1
      name Spine_dum
      direction 0.000000 1.000000 0.000000
      length 4.354460
      axis 0.0 0.0 0.0 xyz
   end
   begin
      id 2
      name LeftUpLeg_dum
      direction 1.000000 0.000000 0.000000
      length 4.291077
      axis 0.0 0.0 0.0 xyz
   end
   begin
      id 3
      name RightUpLeg_dum
      direction -1.000000 0.000000 0.000000
      length 4.291077
      axis 0.0 0.0 0.0 xyz
   end
   begin
      id 4
      name Spine
      direction 0.000000 1.000000 0.000000
      length 0.000000
      axis 0.0 0.0 0.0 xyz
      dof rx ry rz
   end
   begin
      id 5
      name Spine_dum1
      direction 0.000000 1.000000 0.000000
      length 16.581769
      axis 0.0 0.0 0.0 xyz
   end
   begin
      id 6
      name Spine_dum2
      direction 0.000000 1.000000 0.000000
      length 12.903700
      axis 0.0 0.0 0.0 xyz
   end
   begin
      id 7
      name Spine_dum3
      direction 0.000000 1.000000 0.000000
      length 12.903700
      axis 0.0 0.0 0.0 xyz
   end
   begin
      id 8
      name Head
      direction 0.000000 1.000000 0.000000
      length 4.527550
      axis 0.0 0.0 0.0 xyz
      dof rx ry rz
   end
   begin
      id 9
      name LeftShoulder
      direction 1.000000 0.000000 0.000000
      length 6.942033
      axis 0.0 0.0 -90.0 xyz
      dof rx ry rz
   end
   begin
      id 10
      name LeftArm
      direction 1.000000 0.000000 0.000000
      length 11.010391
      axis 0.0 0.0 -90.0 xyz
      dof rx ry rz
   end
   begin
      id 11
      name LeftForeArm
      direction 1.000000 0.000000 0.000000
      length 8.054994
      axis 0.0 0.0 -90.0 xyz
      dof rz ry rx
   end
   begin
      id 12
      name LeftHand
      direction 0.000000 0.000000 0.000000
      length 0.000000
      axis 0.0 0.0 -90.0 xyz
      dof rx ry rz
   end
   begin
      id 13
      name LeftHand_dum1
      direction 0.000000 0.000000 0.000000
      length 0.000000
      axis 0.0 0.0 -90.0 xyz
   end
   begin
      id 14
      name LeftHand_dum2
      direction 1.000000 0.000000 0.000000
      length 3.937000
      axis 0.0 0.0 -90.0 xyz
   end
   begin
      id 15
      name LeftHandThumb1
      direction 0.000000 0.000000 1.000000
      length 3.937000
      axis 0.0 0.0 -90.0 xyz
      dof rx ry rz
   end
   begin
      id 16
      name RightShoulder
      direction -1.000000 0.000000 0.000000
      length 6.942033
      axis 0.0 0.0 90.0 xyz
      dof rx ry rz
   end
   begin
      id 17
      name RightArm
      direction -1.000000 0.000000 0.000000
      length 11.010391
      axis 0.0 0.0 90.0 xyz
      dof rx ry rz
   end
   begin
      id 18
      name RightForeArm
      direction -1.000000 0.000000 0.000000
      length 8.054994
      axis 0.0 0.0 90.0 xyz
      dof rz ry rx
   end
   begin
      id 19
      name RightHand
      direction 0.000000 0.000000 0.000000
      length 0.000000
      axis 0.0 0.0 90.0 xyz
      dof rx ry rz
   end
   begin
      id 20
      name RightHand_dum1
      direction 0.000000 0.000000 0.000000
      length 0.000000
      axis 0.0 0.0 90.0 xyz
   end
   begin
      id 21
      name RightHand_dum2
      direction -1.000000 0.000000 0.000000
      length 3.937000
      axis 0.0 0.0 90.0 xyz
   end
   begin
      id 22
      name RightHandThumb1
      direction 0.000000 0.000000 1.000000
      length 3.937000
      axis 0.0 0.0 90.0 xyz
      dof rx ry rz
   end
   begin
      id 23
      name LeftUpLeg
      direction 0.000000 -1.000000 0.000000
      length 17.039958
      axis 0.0 0.0 0.0 xyz
      dof rx ry rz
   end
   begin
      id 24
      name LeftLeg
      direction 0.000000 -1.000000 0.000000
      length 16.939743
      axis 0.0 0.0 0.0 xyz
      dof rx ry rz
   end
   begin
      id 25
      name LeftFoot
      direction 0.000000 -0.258819 0.965926
      length 5.235044
      axis 15.0 0.0 0.0 xyz
      dof rx ry rz
   end
   begin
      id 26
      name LeftToeBase
      direction 0.000000 0.000000 1.000000
      length 2.952750
      axis 0.0 0.0 0.0 xyz
      dof rx ry rz
   end
   begin
      id 27
      name RightUpLeg
      direction 0.000000 -1.000000 0.000000
      length 17.039958
      axis 0.0 0.0 0.0 xyz
      dof rx ry rz
   end
   begin
      id 28
      name RightLeg
      direction 0.000000 -1.000000 0.000000
      length 16.939743
      axis 0.0 0.0 0.0 xyz
      dof rx ry rz
   end
   begin
      id 29
      name RightFoot
      direction 0.000000 -0.258819 0.965926
      length 5.235044
      axis 15.0 0.0 0.0 xyz
      dof rx ry rz
   end
   begin
      id 30
      name RightToeBase
      direction 0.000000 0.000000 1.000000
      length 2.952750
      axis 0.0 0.0 0.0 xyz
      dof rx ry rz
   end
:hierarchy
   begin
      root Spine_dum LeftUpLeg_dum RightUpLeg_dum
      Spine_dum Spine
      LeftUpLeg_dum LeftUpLeg
      RightUpLeg_dum RightUpLeg
      Spine Spine_dum1 Spine_dum2 Spine_dum3
      Spine_dum1 Head
      Spine_dum2 LeftShoulder
      Spine_dum3 RightShoulder
      LeftShoulder LeftArm
      LeftArm LeftForeArm
      LeftForeArm LeftHand
      LeftHand LeftHand_dum1 LeftHand_dum2
      LeftHand_dum1 LeftHandThumb1
      RightShoulder RightArm
      RightArm RightForeArm
      RightForeArm RightHand
      RightHand RightHand_dum1 RightHand_dum2
      RightHand_dum1 RightHandThumb1
      LeftUpLeg LeftLeg
      LeftLeg LeftFoot
      LeftFoot LeftToeBase
      RightUpLeg RightLeg
      RightLeg RightFoot
      RightFoot RightToeBase
   end

# File created by Blade
# Date/Time:  Thu Jan 15 19:03:33 2015
# Frame Rate: 120.000 fps
#------------------------------------------------------
:FULLY-SPECIFIED
:DEGREES
195
root 1.935125 35.754448 -11.281472 -170.863830 3.702276 -179.522586
Spine -12.301805 4.501765 -1.916740
Head 5.662656 2.393068 12.210067
LeftShoulder -16.627733 11.527562 13.545885
LeftArm -9.157925 -43.683495 -42.444452
LeftForeArm 0.000000 7.784281 2.630526
LeftHand 0.594330 0.000000 0.394985
LeftHandThumb1 -26.253704 33.147579 0.000000
RightShoulder -31.347012 -1.584615 -18.031912
RightArm -30.213734 48.449869 21.759944
RightForeArm -0.000000 -46.541531 22.566953
RightHand -10.146898 -0.000000 -5.257710
RightHandThumb1 -24.326973 -32.862282 -0.000000
LeftUpLeg -1.532837 12.419555 -3.690473
LeftLeg -4.732532 -0.000000 0.000000
LeftFoot -15.933224 23.422607 -11.097723
LeftToeBase 19.570434 -0.000000 -0.000000
RightUpLeg -4.244169 -6.815512 -0.139436
RightLeg -0.972285 -0.000000 0.000000
RightFoot -15.275215 -27.636111 9.638845
RightToeBase 19.945823 -0.000000 -0.000000
196
root 1.935145 35.754078 -11.262838 -170.916795 3.807112 -179.509122
Spine -12.264542 4.526678 -1.950982
Head 5.635940 2.590104 12.251056
LeftShoulder -16.604263 11.560933 13.174294
LeftArm -8.946037 -43.480779 -44.469123
LeftForeArm -0.000000 7.028779 2.364878
LeftHand 0.442957 0.000000 -0.191811
LeftHandThumb1 -26.253704 33.147579 0.000000
RightShoulder -31.495904 -1.718112 -16.932976
RightArm -29.716706 49.254961 23.593589
RightForeArm -0.000000 -46.244134 22.378593
RightHand -10.127708 -0.000000 -5.193322
RightHandThumb1 -24.326973 -32.862282 -0.000000
LeftUpLeg -1.494803 12.456917 -3.681595
LeftLeg -4.742397 -0.000000 0.000000
LeftFoot -15.912527 23.493691 -11.042530
LeftToeBase 19.550931 -0.000000 -0.000000
RightUpLeg -4.237686 -6.815335 -0.134813
RightLeg -0.971672 -0.000000 0.000000
RightFoot -15.212937 -27.555392 9.563596
RightToeBase 19.942153 -0.000000 -0.000000
197
root 1.939546 35.753917 -11.239888 -170.953546 3.938149 -179.489250
Spine -12.249881 4.542167 -1.984823
Head 5.598007 2.871493 12.304060
LeftShoulder -16.532052 11.608598 12.732811
LeftArm -8.796648 -43.491927 -46.270362
LeftForeArm 0.000000 6.138554 1.998684
LeftHand 0.108707 -0.000000 -1.147883
LeftHandThumb1 -26.253704 33.147579 0.000000
RightShoulder -31.541089 -1.764121 -15.851909
RightArm -29.232328 49.827382 25.490218
RightForeArm -0.000000 -45.613933 22.393314
RightHand -10.245786 -0.000000 -4.829025
RightHandThumb1 -24.326973 -32.862282 -0.000000
LeftUpLeg -1.487205 12.526409 -3.665973
LeftLeg -4.733097 -0.000000 0.000000
LeftFoot -15.926276 23.557517 -11.017031
LeftToeBase 19.559076 -0.000000 -0.000000
RightUpLeg -4.262548 -6.746849 -0.118700
RightLeg -0.962326 -0.000000 0.000000
RightFoot -15.173899 -27.509607 9.533491
RightToeBase 19.960512 -0.000000 -0.000000
198
root 1.940232 35.754305 -11.219388 -171.003190 4.083807 -179.459473
Spine -12.228502 4.571781 -1.969212
Head 5.565822 3.102361 12.302389
LeftShoulder -16.487755 11.645639 12.130772
LeftArm -8.610637 -43.658983 -47.904947
LeftForeArm -0.000000 5.748697 1.669817
LeftHand 0.130527 -0.000000 -1.441746
LeftHandThumb1 -26.253704 33.147579 0.000000
RightShoulder -31.591041 -1.918161 -14.809795
RightArm -28.659854 50.850675 27.479241
RightForeArm -0.000000 -45.387223 22.320195
RightHand -10.339353 -0.000000 -4.887371
RightHandThumb1 -24.326973 -32.862282 -0.000000
LeftUpLeg -1.459254 12.588952 -3.645264
LeftLeg -4.728596 -0.000000 0.000000
LeftFoot -15.935586 23.646117 -10.993319
LeftToeBase 19.572769 -0.000000 -0.000000
RightUpLeg -4.271819 -6.687787 -0.104677
RightLeg -0.947999 -0.000000 0.000000
RightFoot -15.112913 -27.423223 9.498958
RightToeBase 19.981307 -0.000000 -0.000000
199
root 1.941330 35.754014 -11.201103 -171.081708 4.248595 -179.443782
Spine -12.181531 4.627934 -1.977466
Head 5.505589 3.279957 12.272801
LeftShoulder -16.469990 11.625716 11.505465
LeftArm -8.346659 -43.754330 -49.482631
LeftForeArm 0.000000 5.093220 1.279027
LeftHand -0.084203 0.000000 -2.040639
LeftHandThumb1 -26.253704 33.147579 0.000000
RightShoulder -31.578294 -1.974465 -13.849858
RightArm -27.965192 51.382716 29.682682
RightForeArm -0.000000 -44.839604 22.202338
RightHand -10.449666 0.000000 -4.915733
RightHandThumb1 -24.326973 -32.862282 -0.000000
LeftUpLeg -1.393014 12.675130 -3.633672
LeftLeg -4.737284 -0.000000 0.000000
LeftFoot -15.967307 23.736244 -10.986816
LeftToeBase 19.669614 -0.000000 -0.000000
RightUpLeg -4.250646 -6.624672 -0.111728
RightLeg -0.930565 -0.000000 0.000000
RightFoot -15.053865 -27.304676 9.425442
RightToeBase 19.984899 -0.000000 -0.000000
